<svg width="64" height="32" viewBox="0 0 64 32" fill="none" xmlns="http://www.w3.org/2000/svg">
<path fill-rule="evenodd" clip-rule="evenodd" d="M8.85149 14.2222H59.5151C60.5193 14.2222 61.3333 15.0363 61.3333 16.0404C61.3333 17.0446 60.5193 17.8586 59.5151 17.8586H8.80805L15.901 24.9515C16.611 25.6616 16.611 26.8128 15.901 27.5228C15.1909 28.2329 14.0397 28.2329 13.3297 27.5228L3.15876 17.3519C2.46247 16.6556 2.44897 15.5351 3.1183 14.8224C3.15188 14.7825 3.18745 14.7437 3.22501 14.7061L13.3959 4.53522C14.106 3.82517 15.2572 3.82517 15.9672 4.53522C16.6773 5.24526 16.6773 6.39647 15.9672 7.10652L8.85149 14.2222Z" fill="black"/>
</svg>
