<svg width="32" height="32" viewBox="0 0 32 32" fill="none" xmlns="http://www.w3.org/2000/svg">
<path fill-rule="evenodd" clip-rule="evenodd" d="M4.66079 24.4301C3.87186 25.2191 3.87186 26.4982 4.66079 27.2871C5.44973 28.076 6.72886 28.076 7.51779 27.2871L16 18.8049L24.4833 27.2883C25.2722 28.0772 26.5514 28.0772 27.3403 27.2883C28.1292 26.4993 28.1292 25.2202 27.3403 24.4313L18.857 15.9479L27.2882 7.51669C28.0771 6.72775 28.0771 5.44864 27.2882 4.6597C26.4993 3.87076 25.2201 3.87076 24.4312 4.6597L16 13.0909L7.56989 4.66085C6.78095 3.87191 5.50183 3.87191 4.71289 4.66085C3.92395 5.44979 3.92395 6.72891 4.71289 7.51785L13.143 15.9479L4.66079 24.4301Z" fill="black"/>
</svg>
