<svg width="32" height="32" viewBox="0 0 32 32" fill="none" xmlns="http://www.w3.org/2000/svg">
<path fill-rule="evenodd" clip-rule="evenodd" d="M4.66104 24.4301C3.8721 25.219 3.8721 26.4981 4.66104 27.2871C5.44998 28.076 6.7291 28.076 7.51804 27.2871L16.0002 18.8049L24.4836 27.2882C25.2725 28.0772 26.5516 28.0772 27.3405 27.2882C28.1295 26.4993 28.1295 25.2202 27.3405 24.4312L18.8572 15.9479L27.2885 7.51667C28.0774 6.72773 28.0774 5.44861 27.2885 4.65967C26.4995 3.87073 25.2204 3.87073 24.4315 4.65967L16.0002 13.0909L7.57013 4.66082C6.78119 3.87189 5.50207 3.87189 4.71313 4.66082C3.9242 5.44976 3.9242 6.72888 4.71313 7.51782L13.1432 15.9479L4.66104 24.4301Z" fill="black"/>
</svg>
