<svg width="32" height="32" viewBox="0 0 32 32" fill="none" xmlns="http://www.w3.org/2000/svg">
<path fill-rule="evenodd" clip-rule="evenodd" d="M18.0202 4.68689C18.0202 3.57116 17.1157 2.66669 16 2.66669C14.8842 2.66669 13.9798 3.57116 13.9798 4.68689V13.9798H4.68683C3.57111 13.9798 2.66663 14.8843 2.66663 16C2.66663 17.1157 3.57111 18.0202 4.68683 18.0202H13.9798V27.3132C13.9798 28.4289 14.8842 29.3334 16 29.3334C17.1157 29.3334 18.0202 28.4289 18.0202 27.3132V18.0202H27.3131C28.4288 18.0202 29.3333 17.1157 29.3333 16C29.3333 14.8843 28.4288 13.9798 27.3131 13.9798H18.0202V4.68689Z" fill="black"/>
</svg>
